<svg xmlns="http://www.w3.org/2000/svg" xmlns:xlink="http://www.w3.org/1999/xlink" width="305" zoomAndPan="magnify" viewBox="0 0 228.75 228.749994" height="305" preserveAspectRatio="xMidYMid meet" version="1.0"><defs><filter x="0%" y="0%" width="100%" height="100%" id="6a747e1903"><feColorMatrix values="0 0 0 0 1 0 0 0 0 1 0 0 0 0 1 0 0 0 1 0" color-interpolation-filters="sRGB"/></filter><mask id="8b15d83635"><g filter="url(#6a747e1903)"><rect x="-22.875" width="274.5" fill="#000000" y="-22.874999" height="274.499993" fill-opacity="0.098"/></g></mask><clipPath id="c3e851be78"><path d="M 0.152344 0.15625 L 212.796875 0.15625 L 212.796875 196.65625 L 0.152344 196.65625 Z M 0.152344 0.15625 " clip-rule="nonzero"/></clipPath><clipPath id="5b162ab8cb"><rect x="0" width="213" y="0" height="197"/></clipPath></defs><g mask="url(#8b15d83635)"><g transform="matrix(1, 0, 0, 1, 8, 16)"><g clip-path="url(#5b162ab8cb)"><g clip-path="url(#c3e851be78)"><path fill="#ffffff" d="M 208.15625 39.796875 C 208.128906 39.675781 208.105469 39.5625 208.078125 39.441406 C 206.035156 29.980469 205.382812 20.429688 206.128906 10.777344 L 207.183594 0.1875 C 203.554688 12.589844 196.753906 20.34375 190.566406 27.308594 C 179.347656 39.9375 176.3125 52.410156 175.589844 59.804688 C 179.710938 59.550781 182.6875 58.964844 184.828125 58.265625 C 189.582031 56.707031 190.234375 54.59375 190.292969 54.347656 C 190.121094 55.539062 189.882812 56.714844 189.585938 57.878906 C 189.382812 58.105469 189.160156 58.316406 188.925781 58.511719 C 189.585938 57.191406 190.039062 55.804688 190.292969 54.347656 C 190.003906 55.804688 189.535156 57.203125 188.886719 58.542969 C 187.746094 59.488281 185.6875 60.589844 181.972656 61.351562 C 179.84375 61.773438 177.695312 62.042969 175.527344 62.15625 C 175.492188 62.160156 175.457031 62.15625 175.417969 62.160156 C 161.511719 62.90625 144.6875 45.675781 132.902344 39.78125 C 121.085938 33.871094 107.84375 41.46875 107.84375 41.46875 C 107.84375 41.46875 94.605469 33.871094 82.785156 39.78125 C 70.96875 45.691406 54.085938 63.003906 40.160156 62.160156 C 39.714844 62.132812 39.320312 62.09375 38.902344 62.058594 C 31.726562 61.46875 28.335938 59.832031 26.761719 58.511719 C 26.527344 58.316406 26.308594 58.109375 26.105469 57.882812 C 25.777344 57.539062 25.539062 57.144531 25.394531 56.695312 C 25.40625 56.746094 25.4375 56.925781 25.5 57.207031 C 24.867188 55.957031 24.378906 54.65625 24.03125 53.300781 C 24.0625 53.429688 24.441406 54.207031 25.523438 55.179688 C 25.445312 54.707031 25.40625 54.40625 25.390625 54.347656 C 25.40625 54.402344 25.457031 54.738281 25.570312 55.226562 C 27.398438 56.855469 31.226562 59.011719 38.726562 59.6875 C 37.976562 52.277344 34.917969 39.867188 23.757812 27.308594 C 11 12.949219 8.152344 6.542969 7.140625 0.1875 C 8.738281 10.957031 10 16.925781 3.953125 42.53125 C -8.007812 93.1875 12.722656 117.914062 12.722656 117.914062 C 13.714844 97.972656 18.304688 97.175781 18.304688 97.175781 C 13.519531 143.441406 37.445312 162.585938 40.632812 164.710938 C 35.050781 155.007812 36.246094 145.234375 36.246094 145.234375 C 46.414062 179.339844 85.886719 181.929688 86.882812 189.707031 C 88.875 185.386719 88.3125 179.738281 85.1875 177.742188 C 96.949219 179.007812 99.675781 186.917969 102.832031 196.621094 C 111.003906 194.824219 124.496094 185.382812 134.234375 174.917969 C 132.59375 179.386719 131.667969 184.589844 132.335938 189.710938 C 133.332031 181.933594 167.910156 179.339844 178.074219 145.238281 C 178.074219 145.238281 179.273438 155.007812 173.691406 164.714844 C 176.878906 162.585938 199.207031 143.441406 194.421875 97.175781 C 194.421875 97.175781 199.011719 97.972656 200.003906 117.917969 C 200.003906 117.917969 220.738281 93.1875 208.777344 42.53125 C 208.558594 41.597656 208.351562 40.691406 208.15625 39.796875 Z M 166.667969 79.257812 C 159.9375 80.203125 153.289062 79.816406 146.71875 78.09375 C 145.621094 77.804688 144.566406 77.484375 143.550781 77.140625 C 153.105469 89.714844 143.617188 98.457031 136.902344 99.367188 C 134.789062 99.65625 121.554688 101.214844 115.742188 89.289062 C 114.761719 90.703125 113.617188 91.972656 112.304688 93.085938 C 112.304688 93.085938 113.597656 88.898438 111.804688 86.304688 C 111.460938 88.195312 110.816406 89.976562 109.878906 91.648438 C 108.9375 93.324219 107.753906 94.800781 106.324219 96.078125 C 107.019531 91.292969 102.832031 86.105469 102.832031 86.105469 C 102.433594 88.699219 102.832031 93.585938 102.832031 93.585938 C 101.921875 92.917969 101.148438 92.117188 100.515625 91.179688 C 99.882812 90.246094 99.425781 89.230469 99.148438 88.132812 C 93.664062 101.363281 79.605469 99.664062 77.425781 99.371094 C 70.855469 98.476562 61.628906 90.097656 70.164062 77.964844 C 65.027344 79.320312 58.835938 80 51.542969 79.257812 C 37.289062 77.816406 30.785156 69.445312 27.828125 62.800781 C 30.621094 67.386719 36.542969 73.152344 49.023438 74.824219 C 60.746094 76.398438 70.152344 73.9375 76.949219 70.777344 C 79.699219 69.503906 82.300781 67.980469 84.761719 66.207031 C 86.488281 64.992188 88.089844 63.625 89.5625 62.109375 C 89.5625 62.109375 88.054688 66.195312 82.570312 70.414062 C 81.136719 71.511719 79.625 72.488281 78.035156 73.347656 C 79.371094 73.289062 80.695312 73.132812 82.007812 72.871094 C 83.136719 72.664062 84.398438 72.382812 85.734375 72.027344 C 94.925781 69.597656 107.84375 63.621094 107.84375 52.503906 C 107.84375 63.621094 120.761719 69.597656 129.953125 72.027344 C 131.65625 72.476562 133.234375 72.808594 134.574219 73.027344 C 135.59375 73.203125 136.617188 73.308594 137.652344 73.347656 C 136.0625 72.492188 134.550781 71.511719 133.113281 70.414062 C 127.632812 66.195312 126.125 62.109375 126.125 62.109375 C 127.597656 63.625 129.195312 64.992188 130.925781 66.207031 C 132.609375 67.421875 134.367188 68.523438 136.195312 69.503906 C 138.75 70.882812 141.410156 72.019531 144.171875 72.917969 C 150.261719 74.898438 157.804688 76.015625 166.664062 74.824219 C 179.511719 73.105469 185.40625 67.050781 188.09375 62.402344 C 185.40625 69.007812 179.507812 77.535156 166.667969 79.257812 Z M 166.667969 79.257812 " fill-opacity="1" fill-rule="nonzero"/></g></g></g></g></svg>