<svg xmlns="http://www.w3.org/2000/svg" xmlns:xlink="http://www.w3.org/1999/xlink" width="305" zoomAndPan="magnify" viewBox="0 0 228.75 228.749994" height="305" preserveAspectRatio="xMidYMid meet" version="1.0"><defs><clipPath id="dd2372cf05"><path d="M 66.402344 60 L 162.402344 60 L 162.402344 168.835938 L 66.402344 168.835938 Z M 66.402344 60 " clip-rule="nonzero"/></clipPath></defs><g clip-path="url(#dd2372cf05)"><path fill="#264de4" d="M 114.363281 168.832031 L 75.191406 157.988281 L 66.464844 60.367188 L 162.375 60.363281 L 153.640625 157.972656 L 114.363281 168.828125 Z M 114.363281 168.832031 " fill-opacity="1" fill-rule="nonzero"/></g><path fill="#2965f1" d="M 146.160156 151.757812 L 153.628906 68.347656 L 114.421875 68.347656 L 114.421875 160.53125 Z M 146.160156 151.757812 " fill-opacity="1" fill-rule="nonzero"/><path fill="#ebebeb" d="M 86.476562 104.554688 L 87.550781 116.523438 L 114.421875 116.523438 L 114.421875 104.554688 Z M 86.476562 104.554688 " fill-opacity="1" fill-rule="nonzero"/><path fill="#ebebeb" d="M 84.3125 80.316406 L 85.40625 92.292969 L 114.421875 92.292969 L 114.421875 80.316406 Z M 84.3125 80.316406 " fill-opacity="1" fill-rule="nonzero"/><path fill="#ebebeb" d="M 114.421875 135.648438 L 114.371094 135.664062 L 100.996094 132.0625 L 100.140625 122.511719 L 88.089844 122.511719 L 89.769531 141.3125 L 114.367188 148.121094 L 114.421875 148.105469 Z M 114.421875 135.648438 " fill-opacity="1" fill-rule="nonzero"/><path fill="#ffffff" d="M 142.292969 104.554688 L 144.457031 80.316406 L 114.378906 80.316406 L 114.378906 92.292969 L 131.300781 92.292969 L 130.210938 104.554688 L 114.378906 104.554688 L 114.378906 116.523438 L 129.167969 116.523438 L 127.773438 132.054688 L 114.378906 135.660156 L 114.378906 148.113281 L 138.996094 141.3125 L 139.175781 139.289062 L 142 107.769531 Z M 142.292969 104.554688 " fill-opacity="1" fill-rule="nonzero"/></svg>