<svg xmlns="http://www.w3.org/2000/svg" xmlns:xlink="http://www.w3.org/1999/xlink" width="305" zoomAndPan="magnify" viewBox="0 0 228.75 228.749994" height="305" preserveAspectRatio="xMidYMid meet" version="1.0"><defs><clipPath id="eb8c57a4eb"><path d="M 70 135.191406 L 97 135.191406 L 97 168 L 70 168 Z M 70 135.191406 " clip-rule="nonzero"/></clipPath><clipPath id="268a2af9fa"><path d="M 101 135.191406 L 128 135.191406 L 128 169 L 101 169 Z M 101 135.191406 " clip-rule="nonzero"/></clipPath><clipPath id="0ecbd66f30"><path d="M 132 135.191406 L 159 135.191406 L 159 169 L 132 169 Z M 132 135.191406 " clip-rule="nonzero"/></clipPath><clipPath id="2d6c12cb87"><path d="M 84 58.175781 L 144.746094 58.175781 L 144.746094 127.175781 L 84 127.175781 Z M 84 58.175781 " clip-rule="nonzero"/></clipPath></defs><g clip-path="url(#eb8c57a4eb)"><path fill="#ffffff" d="M 70.863281 135.191406 L 96.65625 135.191406 L 96.65625 146.007812 L 81.648438 146.007812 L 81.648438 156.820312 L 96.65625 156.820312 L 96.65625 167.636719 L 70.863281 167.636719 Z M 70.863281 135.191406 " fill-opacity="1" fill-rule="nonzero"/></g><g clip-path="url(#268a2af9fa)"><path fill="#ffffff" d="M 101.8125 135.191406 L 127.601562 135.191406 L 127.601562 144.597656 L 112.601562 144.597656 L 112.601562 146.476562 L 127.601562 146.476562 L 127.601562 168.105469 L 101.8125 168.105469 L 101.8125 158.230469 L 116.820312 158.230469 L 116.820312 156.351562 L 101.8125 156.351562 Z M 101.8125 135.191406 " fill-opacity="1" fill-rule="nonzero"/></g><g clip-path="url(#0ecbd66f30)"><path fill="#ffffff" d="M 132.761719 135.191406 L 158.554688 135.191406 L 158.554688 144.597656 L 143.546875 144.597656 L 143.546875 146.476562 L 158.554688 146.476562 L 158.554688 168.105469 L 132.761719 168.105469 L 132.761719 158.230469 L 147.765625 158.230469 L 147.765625 156.351562 L 132.761719 156.351562 Z M 132.761719 135.191406 " fill-opacity="1" fill-rule="nonzero"/></g><g clip-path="url(#2d6c12cb87)"><path fill="#264de4" d="M 114.34375 127.347656 L 89.554688 120.480469 L 84.027344 58.652344 L 144.730469 58.652344 L 139.203125 120.46875 Z M 114.34375 127.347656 " fill-opacity="1" fill-rule="nonzero"/></g><path fill="#2965f1" d="M 134.46875 116.535156 L 139.195312 63.707031 L 114.382812 63.707031 L 114.382812 122.089844 Z M 134.46875 116.535156 " fill-opacity="1" fill-rule="nonzero"/><path fill="#ebebeb" d="M 96.695312 86.640625 L 97.375 94.222656 L 114.382812 94.222656 L 114.382812 86.640625 Z M 96.695312 86.640625 " fill-opacity="1" fill-rule="nonzero"/><path fill="#ebebeb" d="M 95.324219 71.289062 L 96.015625 78.875 L 114.382812 78.875 L 114.382812 71.289062 Z M 95.324219 71.289062 " fill-opacity="1" fill-rule="nonzero"/><path fill="#ebebeb" d="M 114.382812 106.332031 L 114.347656 106.34375 L 105.882812 104.058594 L 105.34375 98.011719 L 97.714844 98.011719 L 98.777344 109.921875 L 114.34375 114.230469 L 114.382812 114.222656 Z M 114.382812 106.332031 " fill-opacity="1" fill-rule="nonzero"/><path fill="#ffffff" d="M 132.019531 86.640625 L 133.390625 71.289062 L 114.355469 71.289062 L 114.355469 78.875 L 125.0625 78.875 L 124.375 86.640625 L 114.355469 86.640625 L 114.355469 94.222656 L 123.714844 94.222656 L 122.832031 104.054688 L 114.355469 106.339844 L 114.355469 114.226562 L 129.933594 109.921875 L 130.046875 108.636719 L 131.835938 88.675781 Z M 132.019531 86.640625 " fill-opacity="1" fill-rule="nonzero"/></svg>