<svg xmlns="http://www.w3.org/2000/svg" xmlns:xlink="http://www.w3.org/1999/xlink" width="305" zoomAndPan="magnify" viewBox="0 0 228.75 228.749994" height="305" preserveAspectRatio="xMidYMid meet" version="1.0"><defs><clipPath id="17af8c9a6d"><path d="M 56.351562 130 L 171 130 L 171 158 L 56.351562 158 Z M 56.351562 130 " clip-rule="nonzero"/></clipPath><clipPath id="60abdca458"><path d="M 88 56.570312 L 140.460938 56.570312 L 140.460938 115.820312 L 88 115.820312 Z M 88 56.570312 " clip-rule="nonzero"/></clipPath></defs><g clip-path="url(#17af8c9a6d)"><path fill="#ffffff" d="M 56.351562 130.453125 L 65.265625 130.453125 L 65.265625 139.21875 L 73.421875 139.21875 L 73.421875 130.453125 L 82.335938 130.453125 L 82.335938 157.003906 L 73.421875 157.003906 L 73.421875 148.128906 L 65.265625 148.128906 L 65.265625 157.003906 L 56.351562 157.003906 Z M 94.058594 139.257812 L 86.195312 139.257812 L 86.195312 130.457031 L 110.8125 130.457031 L 110.8125 139.257812 L 102.960938 139.257812 L 102.960938 157.003906 L 94.042969 157.003906 L 94.042969 139.257812 Z M 114.71875 130.453125 L 124.015625 130.453125 L 129.734375 139.796875 L 135.445312 130.453125 L 144.730469 130.453125 L 144.730469 157.003906 L 135.851562 157.003906 L 135.851562 143.84375 L 129.71875 153.28125 L 129.566406 153.28125 L 123.457031 143.84375 L 123.457031 157.003906 L 114.734375 157.003906 Z M 149.179688 130.453125 L 158.097656 130.453125 L 158.097656 148.242188 L 170.632812 148.242188 L 170.632812 157.019531 L 149.179688 157.019531 Z M 149.179688 130.453125 " fill-opacity="1" fill-rule="nonzero"/></g><g clip-path="url(#60abdca458)"><path fill="#e44d26" d="M 88.871094 56.691406 L 140.566406 56.691406 L 135.859375 109.644531 L 114.679688 115.535156 L 93.566406 109.652344 Z M 88.871094 56.691406 " fill-opacity="1" fill-rule="nonzero"/></g><path fill="#f16529" d="M 131.828125 106.273438 L 135.855469 61.023438 L 114.742188 61.023438 L 114.742188 111.035156 Z M 131.828125 106.273438 " fill-opacity="1" fill-rule="nonzero"/><path fill="#ebebeb" d="M 106.160156 80.664062 L 105.566406 74.011719 L 114.738281 74.011719 L 114.738281 67.519531 L 98.511719 67.519531 L 100.257812 87.160156 L 114.738281 87.160156 L 114.738281 80.667969 Z M 100.527344 90.410156 L 101.433594 100.613281 L 114.691406 104.304688 L 114.722656 104.296875 L 114.722656 97.539062 L 114.695312 97.546875 L 107.503906 95.578125 L 107.042969 90.398438 L 103.539062 90.398438 Z M 100.527344 90.410156 " fill-opacity="1" fill-rule="nonzero"/><path fill="#ffffff" d="M 129.589844 82.40625 L 129.75 80.664062 L 114.707031 80.664062 L 114.707031 87.15625 L 122.675781 87.15625 L 121.925781 95.582031 L 114.707031 97.535156 L 114.707031 104.292969 L 127.976562 100.601562 L 128.074219 99.503906 Z M 114.722656 74.011719 L 130.355469 74.011719 L 130.933594 67.503906 L 114.722656 67.503906 Z M 114.722656 74.011719 " fill-opacity="1" fill-rule="nonzero"/></svg>