<svg xmlns="http://www.w3.org/2000/svg" xmlns:xlink="http://www.w3.org/1999/xlink" width="305" zoomAndPan="magnify" viewBox="0 0 228.75 228.749994" height="305" preserveAspectRatio="xMidYMid meet" version="1.0"><defs><clipPath id="ac43d909e1"><path d="M 67 59.609375 L 163.195312 59.609375 L 163.195312 169 L 67 169 Z M 67 59.609375 " clip-rule="nonzero"/></clipPath></defs><g clip-path="url(#ac43d909e1)"><path fill="#e44d26" d="M 67.332031 59.828125 L 163.214844 59.828125 L 154.480469 157.699219 L 115.203125 168.589844 L 76.046875 157.714844 Z M 67.332031 59.828125 " fill-opacity="1" fill-rule="nonzero"/></g><path fill="#f16529" d="M 147.011719 151.472656 L 154.476562 67.835938 L 115.320312 67.835938 L 115.320312 160.269531 Z M 147.011719 151.472656 " fill-opacity="1" fill-rule="nonzero"/><path fill="#ebebeb" d="M 99.398438 104.140625 L 98.300781 91.84375 L 115.308594 91.84375 L 115.308594 79.84375 L 85.214844 79.84375 L 88.453125 116.144531 L 115.308594 116.144531 L 115.308594 104.144531 Z M 88.953125 122.152344 L 90.636719 141.003906 L 115.226562 147.832031 L 115.28125 147.816406 L 115.28125 135.328125 L 115.226562 135.34375 L 101.894531 131.707031 L 101.039062 122.125 L 94.542969 122.125 Z M 88.953125 122.152344 " fill-opacity="1" fill-rule="nonzero"/><path fill="#ffffff" d="M 142.859375 107.359375 L 143.152344 104.132812 L 115.253906 104.132812 L 115.253906 116.136719 L 130.035156 116.136719 L 128.640625 131.707031 L 115.253906 135.320312 L 115.253906 147.808594 L 139.863281 140.988281 L 140.042969 138.957031 Z M 115.28125 91.84375 L 144.273438 91.84375 L 145.351562 79.8125 L 115.28125 79.8125 Z M 115.28125 91.84375 " fill-opacity="1" fill-rule="nonzero"/></svg>