<svg xmlns="http://www.w3.org/2000/svg" xmlns:xlink="http://www.w3.org/1999/xlink" width="800" zoomAndPan="magnify" viewBox="0 0 600 374.999991" height="500" preserveAspectRatio="xMidYMid meet" version="1.0"><defs><g/><clipPath id="f1da9e88c9"><path d="M 196.527344 146.527344 L 403.472656 146.527344 L 403.472656 228.472656 L 196.527344 228.472656 Z M 196.527344 146.527344 " clip-rule="nonzero"/></clipPath><clipPath id="20b7c099aa"><path d="M 213.777344 146.527344 L 386.222656 146.527344 C 390.796875 146.527344 395.183594 148.34375 398.417969 151.582031 C 401.65625 154.816406 403.472656 159.203125 403.472656 163.777344 L 403.472656 211.222656 C 403.472656 215.796875 401.65625 220.183594 398.417969 223.417969 C 395.183594 226.65625 390.796875 228.472656 386.222656 228.472656 L 213.777344 228.472656 C 209.203125 228.472656 204.816406 226.65625 201.582031 223.417969 C 198.34375 220.183594 196.527344 215.796875 196.527344 211.222656 L 196.527344 163.777344 C 196.527344 159.203125 198.34375 154.816406 201.582031 151.582031 C 204.816406 148.34375 209.203125 146.527344 213.777344 146.527344 " clip-rule="nonzero"/></clipPath><clipPath id="8a164098c1"><path d="M 316.175781 162.089844 L 385.925781 162.089844 L 385.925781 213.089844 L 316.175781 213.089844 Z M 316.175781 162.089844 " clip-rule="nonzero"/></clipPath></defs><g clip-path="url(#f1da9e88c9)"><g clip-path="url(#20b7c099aa)"><path fill="#1e1e1e" d="M 196.527344 146.527344 L 403.472656 146.527344 L 403.472656 228.472656 L 196.527344 228.472656 Z M 196.527344 146.527344 " fill-opacity="1" fill-rule="nonzero"/></g></g><g clip-path="url(#8a164098c1)"><path fill="#e1b208" d="M 323.648438 162.09375 C 319.550781 162.09375 316.175781 165.546875 316.175781 169.742188 L 316.175781 205.441406 C 316.175781 209.636719 319.550781 213.089844 323.648438 213.089844 L 378.453125 213.089844 C 382.550781 213.089844 385.925781 209.636719 385.925781 205.441406 L 385.925781 169.742188 C 385.925781 165.546875 382.550781 162.09375 378.453125 162.09375 Z M 323.648438 167.191406 L 378.453125 167.191406 C 379.863281 167.191406 380.945312 168.296875 380.945312 169.742188 L 380.945312 205.441406 C 380.945312 206.882812 379.863281 207.992188 378.453125 207.992188 L 323.648438 207.992188 C 322.238281 207.992188 321.160156 206.882812 321.160156 205.441406 L 321.160156 169.742188 C 321.160156 168.296875 322.238281 167.191406 323.648438 167.191406 Z M 338.597656 172.292969 C 333.117188 172.292969 328.632812 176.882812 328.632812 182.492188 C 328.632812 185.328125 329.820312 187.890625 331.667969 189.742188 C 329.972656 190.914062 328.582031 192.492188 327.621094 194.339844 C 326.65625 196.1875 326.148438 198.246094 326.140625 200.339844 L 331.121094 200.339844 C 331.121094 196.089844 334.441406 192.691406 338.597656 192.691406 C 342.75 192.691406 346.070312 196.089844 346.070312 200.339844 L 351.050781 200.339844 C 351.042969 198.246094 350.535156 196.1875 349.574219 194.339844 C 348.609375 192.492188 347.21875 190.914062 345.523438 189.742188 C 347.371094 187.890625 348.558594 185.332031 348.558594 182.492188 C 348.558594 176.882812 344.078125 172.292969 338.597656 172.292969 Z M 356.035156 174.84375 L 356.035156 179.941406 L 375.960938 179.941406 L 375.960938 174.84375 Z M 338.597656 177.390625 C 341.378906 177.390625 343.578125 179.644531 343.578125 182.492188 C 343.578125 185.339844 341.378906 187.589844 338.597656 187.589844 C 335.8125 187.589844 333.613281 185.339844 333.613281 182.492188 C 333.613281 179.644531 335.8125 177.390625 338.597656 177.390625 Z M 356.035156 185.042969 L 356.035156 190.140625 L 375.960938 190.140625 L 375.960938 185.042969 Z M 356.035156 195.242188 L 356.035156 200.339844 L 368.488281 200.339844 L 368.488281 195.242188 Z M 356.035156 195.242188 " fill-opacity="0.8118" fill-rule="nonzero"/></g><g fill="#ffffff" fill-opacity="1"><g transform="translate(209.097649, 183.525002)"><g><path d="M 2.359375 -19.953125 L 6.984375 -19.953125 L 6.984375 0 L 2.359375 0 Z M 2.359375 -19.953125 "/></g></g></g><g fill="#ffffff" fill-opacity="1"><g transform="translate(218.445674, 183.525002)"><g><path d="M 17.671875 -21.140625 L 17.671875 0 L 13.421875 0 L 13.421875 -1.765625 C 12.316406 -0.429688 10.722656 0.234375 8.640625 0.234375 C 7.191406 0.234375 5.882812 -0.0859375 4.71875 -0.734375 C 3.550781 -1.378906 2.632812 -2.300781 1.96875 -3.5 C 1.300781 -4.695312 0.96875 -6.085938 0.96875 -7.671875 C 0.96875 -9.242188 1.300781 -10.628906 1.96875 -11.828125 C 2.632812 -13.023438 3.550781 -13.945312 4.71875 -14.59375 C 5.882812 -15.238281 7.191406 -15.5625 8.640625 -15.5625 C 10.597656 -15.5625 12.125 -14.941406 13.21875 -13.703125 L 13.21875 -21.140625 Z M 9.40625 -3.421875 C 10.53125 -3.421875 11.460938 -3.804688 12.203125 -4.578125 C 12.941406 -5.347656 13.3125 -6.378906 13.3125 -7.671875 C 13.3125 -8.960938 12.941406 -9.988281 12.203125 -10.75 C 11.460938 -11.519531 10.53125 -11.90625 9.40625 -11.90625 C 8.257812 -11.90625 7.316406 -11.519531 6.578125 -10.75 C 5.835938 -9.988281 5.46875 -8.960938 5.46875 -7.671875 C 5.46875 -6.378906 5.835938 -5.347656 6.578125 -4.578125 C 7.316406 -3.804688 8.257812 -3.421875 9.40625 -3.421875 Z M 9.40625 -3.421875 "/></g></g></g><g fill="#ffffff" fill-opacity="1"><g transform="translate(238.167735, 183.525002)"><g><path d="M 8.234375 -15.5625 C 10.609375 -15.5625 12.429688 -14.992188 13.703125 -13.859375 C 14.984375 -12.734375 15.625 -11.03125 15.625 -8.75 L 15.625 0 L 11.453125 0 L 11.453125 -1.90625 C 10.617188 -0.476562 9.0625 0.234375 6.78125 0.234375 C 5.601562 0.234375 4.582031 0.0351562 3.71875 -0.359375 C 2.851562 -0.765625 2.191406 -1.316406 1.734375 -2.015625 C 1.273438 -2.722656 1.046875 -3.523438 1.046875 -4.421875 C 1.046875 -5.847656 1.582031 -6.96875 2.65625 -7.78125 C 3.738281 -8.59375 5.398438 -9 7.640625 -9 L 11.171875 -9 C 11.171875 -9.96875 10.875 -10.710938 10.28125 -11.234375 C 9.695312 -11.765625 8.816406 -12.03125 7.640625 -12.03125 C 6.816406 -12.03125 6.007812 -11.898438 5.21875 -11.640625 C 4.4375 -11.378906 3.769531 -11.035156 3.21875 -10.609375 L 1.625 -13.703125 C 2.457031 -14.296875 3.457031 -14.753906 4.625 -15.078125 C 5.800781 -15.398438 7.003906 -15.5625 8.234375 -15.5625 Z M 7.890625 -2.765625 C 8.648438 -2.765625 9.320312 -2.9375 9.90625 -3.28125 C 10.5 -3.632812 10.921875 -4.15625 11.171875 -4.84375 L 11.171875 -6.40625 L 8.125 -6.40625 C 6.300781 -6.40625 5.390625 -5.804688 5.390625 -4.609375 C 5.390625 -4.046875 5.609375 -3.597656 6.046875 -3.265625 C 6.492188 -2.929688 7.109375 -2.765625 7.890625 -2.765625 Z M 7.890625 -2.765625 "/></g></g></g><g fill="#ffffff" fill-opacity="1"><g transform="translate(255.752278, 183.525002)"><g><path d="M 17.671875 -21.140625 L 17.671875 0 L 13.421875 0 L 13.421875 -1.765625 C 12.316406 -0.429688 10.722656 0.234375 8.640625 0.234375 C 7.191406 0.234375 5.882812 -0.0859375 4.71875 -0.734375 C 3.550781 -1.378906 2.632812 -2.300781 1.96875 -3.5 C 1.300781 -4.695312 0.96875 -6.085938 0.96875 -7.671875 C 0.96875 -9.242188 1.300781 -10.628906 1.96875 -11.828125 C 2.632812 -13.023438 3.550781 -13.945312 4.71875 -14.59375 C 5.882812 -15.238281 7.191406 -15.5625 8.640625 -15.5625 C 10.597656 -15.5625 12.125 -14.941406 13.21875 -13.703125 L 13.21875 -21.140625 Z M 9.40625 -3.421875 C 10.53125 -3.421875 11.460938 -3.804688 12.203125 -4.578125 C 12.941406 -5.347656 13.3125 -6.378906 13.3125 -7.671875 C 13.3125 -8.960938 12.941406 -9.988281 12.203125 -10.75 C 11.460938 -11.519531 10.53125 -11.90625 9.40625 -11.90625 C 8.257812 -11.90625 7.316406 -11.519531 6.578125 -10.75 C 5.835938 -9.988281 5.46875 -8.960938 5.46875 -7.671875 C 5.46875 -6.378906 5.835938 -5.347656 6.578125 -4.578125 C 7.316406 -3.804688 8.257812 -3.421875 9.40625 -3.421875 Z M 9.40625 -3.421875 "/></g></g></g><g fill="#ffffff" fill-opacity="1"><g transform="translate(275.474339, 183.525002)"><g><path d="M 17.078125 -7.609375 C 17.078125 -7.554688 17.046875 -7.15625 16.984375 -6.40625 L 5.390625 -6.40625 C 5.597656 -5.457031 6.085938 -4.707031 6.859375 -4.15625 C 7.640625 -3.601562 8.613281 -3.328125 9.78125 -3.328125 C 10.570312 -3.328125 11.273438 -3.445312 11.890625 -3.6875 C 12.515625 -3.925781 13.09375 -4.300781 13.625 -4.8125 L 15.984375 -2.25 C 14.546875 -0.59375 12.4375 0.234375 9.65625 0.234375 C 7.925781 0.234375 6.394531 -0.101562 5.0625 -0.78125 C 3.738281 -1.457031 2.710938 -2.394531 1.984375 -3.59375 C 1.265625 -4.789062 0.90625 -6.148438 0.90625 -7.671875 C 0.90625 -9.171875 1.257812 -10.519531 1.96875 -11.71875 C 2.6875 -12.925781 3.664062 -13.867188 4.90625 -14.546875 C 6.15625 -15.222656 7.550781 -15.5625 9.09375 -15.5625 C 10.59375 -15.5625 11.945312 -15.238281 13.15625 -14.59375 C 14.375 -13.945312 15.332031 -13.019531 16.03125 -11.8125 C 16.726562 -10.601562 17.078125 -9.203125 17.078125 -7.609375 Z M 9.125 -12.203125 C 8.113281 -12.203125 7.265625 -11.914062 6.578125 -11.34375 C 5.898438 -10.769531 5.484375 -9.988281 5.328125 -9 L 12.875 -9 C 12.726562 -9.96875 12.3125 -10.742188 11.625 -11.328125 C 10.945312 -11.910156 10.113281 -12.203125 9.125 -12.203125 Z M 9.125 -12.203125 "/></g></g></g><g fill="#ffffff" fill-opacity="1"><g transform="translate(207.574213, 212.024986)"><g><path d="M 12.71875 -1.53125 L 12.71875 0 L 0.9375 0 L 0.9375 -1.21875 L 7.921875 -8.0625 C 8.796875 -8.925781 9.390625 -9.671875 9.703125 -10.296875 C 10.015625 -10.929688 10.171875 -11.570312 10.171875 -12.21875 C 10.171875 -13.207031 9.832031 -13.976562 9.15625 -14.53125 C 8.476562 -15.082031 7.503906 -15.359375 6.234375 -15.359375 C 4.265625 -15.359375 2.738281 -14.734375 1.65625 -13.484375 L 0.4375 -14.546875 C 1.09375 -15.316406 1.925781 -15.90625 2.9375 -16.3125 C 3.957031 -16.726562 5.109375 -16.9375 6.390625 -16.9375 C 8.097656 -16.9375 9.453125 -16.53125 10.453125 -15.71875 C 11.453125 -14.914062 11.953125 -13.8125 11.953125 -12.40625 C 11.953125 -11.539062 11.757812 -10.707031 11.375 -9.90625 C 10.988281 -9.113281 10.257812 -8.195312 9.1875 -7.15625 L 3.484375 -1.53125 Z M 12.71875 -1.53125 "/></g></g></g><g fill="#ffffff" fill-opacity="1"><g transform="translate(221.206243, 212.024986)"><g><path d="M 10.875 -8.8125 C 11.925781 -8.457031 12.734375 -7.925781 13.296875 -7.21875 C 13.867188 -6.519531 14.15625 -5.675781 14.15625 -4.6875 C 14.15625 -3.707031 13.890625 -2.851562 13.359375 -2.125 C 12.835938 -1.394531 12.082031 -0.832031 11.09375 -0.4375 C 10.113281 -0.0507812 8.957031 0.140625 7.625 0.140625 C 5.613281 0.140625 4.03125 -0.289062 2.875 -1.15625 C 1.726562 -2.019531 1.15625 -3.195312 1.15625 -4.6875 C 1.15625 -5.6875 1.429688 -6.535156 1.984375 -7.234375 C 2.535156 -7.929688 3.335938 -8.457031 4.390625 -8.8125 C 3.523438 -9.144531 2.867188 -9.625 2.421875 -10.25 C 1.972656 -10.882812 1.75 -11.632812 1.75 -12.5 C 1.75 -13.863281 2.28125 -14.941406 3.34375 -15.734375 C 4.40625 -16.535156 5.832031 -16.9375 7.625 -16.9375 C 8.8125 -16.9375 9.847656 -16.753906 10.734375 -16.390625 C 11.628906 -16.035156 12.320312 -15.519531 12.8125 -14.84375 C 13.3125 -14.175781 13.5625 -13.394531 13.5625 -12.5 C 13.5625 -11.632812 13.328125 -10.882812 12.859375 -10.25 C 12.398438 -9.625 11.738281 -9.144531 10.875 -8.8125 Z M 3.484375 -12.453125 C 3.484375 -11.523438 3.847656 -10.789062 4.578125 -10.25 C 5.316406 -9.707031 6.332031 -9.4375 7.625 -9.4375 C 8.925781 -9.4375 9.945312 -9.707031 10.6875 -10.25 C 11.4375 -10.789062 11.8125 -11.519531 11.8125 -12.4375 C 11.8125 -13.375 11.429688 -14.113281 10.671875 -14.65625 C 9.910156 -15.207031 8.894531 -15.484375 7.625 -15.484375 C 6.351562 -15.484375 5.34375 -15.207031 4.59375 -14.65625 C 3.851562 -14.113281 3.484375 -13.378906 3.484375 -12.453125 Z M 7.625 -1.3125 C 9.113281 -1.3125 10.28125 -1.613281 11.125 -2.21875 C 11.96875 -2.832031 12.390625 -3.660156 12.390625 -4.703125 C 12.390625 -5.742188 11.96875 -6.5625 11.125 -7.15625 C 10.28125 -7.757812 9.113281 -8.0625 7.625 -8.0625 C 6.15625 -8.0625 5 -7.757812 4.15625 -7.15625 C 3.320312 -6.5625 2.90625 -5.742188 2.90625 -4.703125 C 2.90625 -3.648438 3.320312 -2.820312 4.15625 -2.21875 C 4.988281 -1.613281 6.144531 -1.3125 7.625 -1.3125 Z M 7.625 -1.3125 "/></g></g></g><g fill="#ffffff" fill-opacity="1"><g transform="translate(236.518276, 212.024986)"><g/></g></g><g fill="#ffffff" fill-opacity="1"><g transform="translate(242.806289, 212.024986)"><g><path d="M 6.796875 -12.71875 C 8.441406 -12.71875 9.703125 -12.304688 10.578125 -11.484375 C 11.460938 -10.660156 11.90625 -9.441406 11.90625 -7.828125 L 11.90625 0 L 10.265625 0 L 10.265625 -1.96875 C 9.890625 -1.3125 9.328125 -0.796875 8.578125 -0.421875 C 7.835938 -0.0546875 6.953125 0.125 5.921875 0.125 C 4.515625 0.125 3.394531 -0.207031 2.5625 -0.875 C 1.726562 -1.550781 1.3125 -2.441406 1.3125 -3.546875 C 1.3125 -4.617188 1.695312 -5.484375 2.46875 -6.140625 C 3.25 -6.796875 4.488281 -7.125 6.1875 -7.125 L 10.203125 -7.125 L 10.203125 -7.890625 C 10.203125 -8.984375 9.894531 -9.8125 9.28125 -10.375 C 8.675781 -10.945312 7.789062 -11.234375 6.625 -11.234375 C 5.820312 -11.234375 5.050781 -11.097656 4.3125 -10.828125 C 3.582031 -10.566406 2.953125 -10.207031 2.421875 -9.75 L 1.65625 -11.015625 C 2.289062 -11.554688 3.054688 -11.972656 3.953125 -12.265625 C 4.847656 -12.566406 5.796875 -12.71875 6.796875 -12.71875 Z M 6.1875 -1.21875 C 7.144531 -1.21875 7.96875 -1.4375 8.65625 -1.875 C 9.351562 -2.320312 9.867188 -2.960938 10.203125 -3.796875 L 10.203125 -5.859375 L 6.234375 -5.859375 C 4.078125 -5.859375 3 -5.101562 3 -3.59375 C 3 -2.863281 3.28125 -2.285156 3.84375 -1.859375 C 4.40625 -1.429688 5.1875 -1.21875 6.1875 -1.21875 Z M 6.1875 -1.21875 "/></g></g></g><g fill="#ffffff" fill-opacity="1"><g transform="translate(256.966314, 212.024986)"><g><path d="M 8.8125 -12.71875 C 10.394531 -12.71875 11.648438 -12.253906 12.578125 -11.328125 C 13.515625 -10.410156 13.984375 -9.070312 13.984375 -7.3125 L 13.984375 0 L 12.28125 0 L 12.28125 -7.15625 C 12.28125 -8.46875 11.953125 -9.46875 11.296875 -10.15625 C 10.640625 -10.84375 9.707031 -11.1875 8.5 -11.1875 C 7.132812 -11.1875 6.054688 -10.78125 5.265625 -9.96875 C 4.472656 -9.164062 4.078125 -8.050781 4.078125 -6.625 L 4.078125 0 L 2.375 0 L 2.375 -12.625 L 4.015625 -12.625 L 4.015625 -10.296875 C 4.472656 -11.066406 5.113281 -11.660156 5.9375 -12.078125 C 6.757812 -12.503906 7.71875 -12.71875 8.8125 -12.71875 Z M 8.8125 -12.71875 "/></g></g></g><g fill="#ffffff" fill-opacity="1"><g transform="translate(273.214349, 212.024986)"><g><path d="M 7.53125 0.125 C 6.320312 0.125 5.226562 -0.148438 4.25 -0.703125 C 3.269531 -1.253906 2.5 -2.019531 1.9375 -3 C 1.382812 -3.976562 1.109375 -5.082031 1.109375 -6.3125 C 1.109375 -7.539062 1.382812 -8.644531 1.9375 -9.625 C 2.5 -10.601562 3.269531 -11.363281 4.25 -11.90625 C 5.226562 -12.445312 6.320312 -12.71875 7.53125 -12.71875 C 8.75 -12.71875 9.84375 -12.445312 10.8125 -11.90625 C 11.789062 -11.363281 12.554688 -10.601562 13.109375 -9.625 C 13.660156 -8.644531 13.9375 -7.539062 13.9375 -6.3125 C 13.9375 -5.082031 13.660156 -3.976562 13.109375 -3 C 12.554688 -2.019531 11.789062 -1.253906 10.8125 -0.703125 C 9.84375 -0.148438 8.75 0.125 7.53125 0.125 Z M 7.53125 -1.390625 C 8.425781 -1.390625 9.226562 -1.59375 9.9375 -2 C 10.65625 -2.40625 11.210938 -2.984375 11.609375 -3.734375 C 12.015625 -4.492188 12.21875 -5.351562 12.21875 -6.3125 C 12.21875 -7.269531 12.015625 -8.125 11.609375 -8.875 C 11.210938 -9.632812 10.65625 -10.21875 9.9375 -10.625 C 9.226562 -11.03125 8.425781 -11.234375 7.53125 -11.234375 C 6.632812 -11.234375 5.832031 -11.03125 5.125 -10.625 C 4.414062 -10.21875 3.851562 -9.632812 3.4375 -8.875 C 3.03125 -8.125 2.828125 -7.269531 2.828125 -6.3125 C 2.828125 -5.351562 3.03125 -4.492188 3.4375 -3.734375 C 3.851562 -2.984375 4.414062 -2.40625 5.125 -2 C 5.832031 -1.59375 6.632812 -1.390625 7.53125 -1.390625 Z M 7.53125 -1.390625 "/></g></g></g><g fill="#ffffff" fill-opacity="1"><g transform="translate(288.262378, 212.024986)"><g><path d="M 5.765625 0.125 C 4.734375 0.125 3.75 -0.0195312 2.8125 -0.3125 C 1.882812 -0.613281 1.15625 -0.988281 0.625 -1.4375 L 1.390625 -2.78125 C 1.921875 -2.363281 2.582031 -2.023438 3.375 -1.765625 C 4.175781 -1.503906 5.007812 -1.375 5.875 -1.375 C 7.03125 -1.375 7.882812 -1.550781 8.4375 -1.90625 C 8.988281 -2.269531 9.265625 -2.78125 9.265625 -3.4375 C 9.265625 -3.894531 9.113281 -4.253906 8.8125 -4.515625 C 8.507812 -4.785156 8.125 -4.988281 7.65625 -5.125 C 7.1875 -5.257812 6.570312 -5.390625 5.8125 -5.515625 C 4.78125 -5.710938 3.953125 -5.910156 3.328125 -6.109375 C 2.710938 -6.304688 2.179688 -6.644531 1.734375 -7.125 C 1.296875 -7.601562 1.078125 -8.269531 1.078125 -9.125 C 1.078125 -10.175781 1.515625 -11.035156 2.390625 -11.703125 C 3.273438 -12.378906 4.503906 -12.71875 6.078125 -12.71875 C 6.890625 -12.71875 7.703125 -12.609375 8.515625 -12.390625 C 9.335938 -12.179688 10.007812 -11.898438 10.53125 -11.546875 L 9.796875 -10.171875 C 8.753906 -10.890625 7.515625 -11.25 6.078125 -11.25 C 4.984375 -11.25 4.160156 -11.054688 3.609375 -10.671875 C 3.054688 -10.296875 2.78125 -9.796875 2.78125 -9.171875 C 2.78125 -8.691406 2.9375 -8.304688 3.25 -8.015625 C 3.5625 -7.722656 3.945312 -7.507812 4.40625 -7.375 C 4.875 -7.238281 5.519531 -7.097656 6.34375 -6.953125 C 7.34375 -6.765625 8.144531 -6.570312 8.75 -6.375 C 9.363281 -6.1875 9.882812 -5.859375 10.3125 -5.390625 C 10.75 -4.929688 10.96875 -4.296875 10.96875 -3.484375 C 10.96875 -2.378906 10.503906 -1.5 9.578125 -0.84375 C 8.660156 -0.195312 7.390625 0.125 5.765625 0.125 Z M 5.765625 0.125 "/></g></g></g></svg>