<svg xmlns="http://www.w3.org/2000/svg" xmlns:xlink="http://www.w3.org/1999/xlink" width="305" zoomAndPan="magnify" viewBox="0 0 228.75 228.749994" height="305" preserveAspectRatio="xMidYMid meet" version="1.0"><defs><clipPath id="f5be1601be"><path d="M 90 64 L 140.980469 64 L 140.980469 123 L 90 123 Z M 90 64 " clip-rule="nonzero"/></clipPath><clipPath id="c7a5aec4bb"><path d="M 60.9375 131.074219 L 167 131.074219 L 167 169 L 60.9375 169 Z M 60.9375 131.074219 " clip-rule="nonzero"/></clipPath></defs><g clip-path="url(#f5be1601be)"><path fill="#83cd29" d="M 115.777344 64.609375 C 114.996094 64.609375 114.242188 64.769531 113.570312 65.148438 L 92.390625 77.34375 C 91.019531 78.128906 90.183594 79.617188 90.183594 81.199219 L 90.183594 105.546875 C 90.183594 107.128906 91.019531 108.613281 92.390625 109.402344 L 97.921875 112.582031 C 100.609375 113.902344 101.601562 113.882812 102.824219 113.882812 C 106.804688 113.882812 109.074219 111.472656 109.074219 107.289062 L 109.074219 83.269531 C 109.074219 82.929688 108.78125 82.683594 108.445312 82.683594 L 105.792969 82.683594 C 105.453125 82.683594 105.164062 82.933594 105.164062 83.269531 L 105.164062 107.300781 C 105.164062 109.15625 103.222656 111.019531 100.082031 109.453125 L 94.328125 106.089844 C 94.125 105.980469 93.96875 105.777344 93.96875 105.550781 L 93.96875 81.203125 C 93.96875 80.972656 94.125 80.738281 94.328125 80.621094 L 115.46875 68.46875 C 115.667969 68.355469 115.902344 68.355469 116.097656 68.46875 L 137.234375 80.621094 C 137.4375 80.742188 137.597656 80.96875 137.597656 81.203125 L 137.597656 105.550781 C 137.597656 105.785156 137.480469 106.023438 137.28125 106.136719 L 116.097656 118.285156 C 115.910156 118.394531 115.660156 118.394531 115.46875 118.285156 L 110.027344 115.058594 C 109.863281 114.964844 109.644531 114.972656 109.488281 115.058594 C 107.984375 115.90625 107.703125 116.007812 106.292969 116.492188 C 105.945312 116.613281 105.417969 116.800781 106.472656 117.390625 L 113.582031 121.566406 C 114.257812 121.957031 115.011719 122.148438 115.785156 122.148438 C 116.570312 122.148438 117.3125 121.960938 117.988281 121.566406 L 139.171875 109.414062 C 140.542969 108.617188 141.375 107.140625 141.375 105.558594 L 141.375 81.210938 C 141.375 79.628906 140.542969 78.144531 139.171875 77.355469 L 117.988281 65.160156 C 117.324219 64.78125 116.5625 64.621094 115.785156 64.621094 Z M 121.441406 82.007812 C 115.410156 82.007812 111.820312 84.566406 111.820312 88.824219 C 111.820312 93.433594 115.382812 94.707031 121.171875 95.277344 C 128.101562 95.957031 128.640625 96.96875 128.640625 98.328125 C 128.640625 100.6875 126.753906 101.691406 122.296875 101.691406 C 116.699219 101.691406 115.46875 100.296875 115.058594 97.515625 C 115.007812 97.21875 114.777344 96.976562 114.472656 96.976562 L 111.722656 96.976562 C 111.550781 96.980469 111.402344 97.042969 111.28125 97.164062 C 111.160156 97.289062 111.097656 97.433594 111.09375 97.605469 C 111.09375 101.160156 113.03125 105.363281 122.292969 105.363281 C 128.996094 105.363281 132.859375 102.746094 132.859375 98.144531 C 132.859375 93.59375 129.738281 92.363281 123.238281 91.507812 C 116.671875 90.632812 116.039062 90.214844 116.039062 88.683594 C 116.039062 87.414062 116.570312 85.722656 121.4375 85.722656 C 125.785156 85.722656 127.390625 86.65625 128.050781 89.578125 C 128.105469 89.851562 128.347656 90.078125 128.632812 90.078125 L 131.382812 90.078125 C 131.554688 90.078125 131.714844 89.972656 131.835938 89.851562 C 131.949219 89.722656 132.03125 89.578125 132.015625 89.402344 C 131.589844 84.371094 128.222656 82.003906 121.445312 82.003906 Z M 121.441406 82.007812 " fill-opacity="1" fill-rule="nonzero"/></g><g clip-path="url(#c7a5aec4bb)"><path fill="#ffffff" d="M 132.113281 131.335938 C 132.015625 131.335938 131.917969 131.359375 131.832031 131.410156 C 131.644531 131.519531 131.550781 131.679688 131.546875 131.898438 L 131.546875 146.238281 C 131.546875 146.378906 131.480469 146.503906 131.359375 146.574219 C 131.226562 146.652344 131.09375 146.652344 130.960938 146.574219 L 128.601562 145.222656 C 128.222656 145.007812 127.84375 145.007812 127.464844 145.222656 L 118.035156 150.621094 C 117.683594 150.824219 117.46875 151.210938 117.46875 151.617188 L 117.46875 162.414062 C 117.46875 162.847656 117.65625 163.171875 118.035156 163.386719 L 127.464844 168.785156 C 127.84375 169.003906 128.222656 169.003906 128.601562 168.785156 L 138.03125 163.386719 C 138.410156 163.171875 138.597656 162.847656 138.597656 162.414062 L 138.597656 135.496094 C 138.597656 135.085938 138.371094 134.703125 138.011719 134.503906 L 132.398438 131.390625 C 132.3125 131.339844 132.214844 131.332031 132.117188 131.332031 Z M 71.453125 144.8125 C 71.273438 144.820312 71.101562 144.851562 70.941406 144.941406 L 61.511719 150.339844 C 61.132812 150.558594 60.945312 150.882812 60.945312 151.316406 L 60.964844 165.804688 C 60.964844 166.007812 61.070312 166.195312 61.25 166.292969 C 61.421875 166.398438 61.640625 166.398438 61.816406 166.292969 L 67.410156 163.105469 C 67.761719 162.898438 67.996094 162.535156 67.996094 162.132812 L 67.996094 155.363281 C 67.996094 154.960938 68.207031 154.589844 68.5625 154.390625 L 70.941406 153.023438 C 71.117188 152.921875 71.308594 152.871094 71.507812 152.871094 C 71.710938 152.871094 71.902344 152.921875 72.078125 153.023438 L 74.457031 154.390625 C 74.808594 154.589844 75.023438 154.960938 75.023438 155.363281 L 75.023438 162.128906 C 75.023438 162.535156 75.261719 162.898438 75.609375 163.105469 L 81.203125 166.292969 C 81.378906 166.394531 81.597656 166.394531 81.769531 166.292969 C 81.945312 166.191406 82.054688 166.003906 82.054688 165.804688 L 82.074219 151.316406 C 82.074219 150.878906 81.886719 150.554688 81.507812 150.339844 L 72.074219 144.945312 C 71.917969 144.851562 71.746094 144.820312 71.566406 144.8125 Z M 156.191406 144.941406 C 155.988281 144.941406 155.796875 144.992188 155.621094 145.09375 L 146.191406 150.492188 C 145.839844 150.695312 145.625 151.0625 145.625 151.464844 L 145.625 162.261719 C 145.625 162.667969 145.855469 163.035156 146.210938 163.238281 L 155.566406 168.527344 C 155.910156 168.722656 156.332031 168.734375 156.679688 168.542969 L 162.351562 165.414062 C 162.53125 165.316406 162.652344 165.128906 162.652344 164.925781 C 162.652344 164.722656 162.546875 164.539062 162.367188 164.4375 L 152.882812 159.039062 C 152.703125 158.941406 152.578125 158.738281 152.578125 158.535156 L 152.578125 155.15625 C 152.578125 154.957031 152.707031 154.773438 152.882812 154.671875 L 155.828125 152.984375 C 156.003906 152.882812 156.21875 152.882812 156.398438 152.984375 L 159.351562 154.671875 C 159.542969 154.777344 159.636719 154.941406 159.636719 155.15625 L 159.636719 157.820312 C 159.632812 158.035156 159.730469 158.199219 159.917969 158.308594 C 160.09375 158.40625 160.308594 158.410156 160.484375 158.308594 L 166.136719 155.046875 C 166.484375 154.84375 166.703125 154.472656 166.703125 154.070312 L 166.703125 151.464844 C 166.703125 151.03125 166.515625 150.707031 166.136719 150.492188 L 156.761719 145.09375 C 156.585938 144.992188 156.398438 144.941406 156.195312 144.941406 Z M 127.992188 153.003906 C 128.046875 153.003906 128.097656 153.015625 128.144531 153.039062 L 131.375 154.898438 C 131.464844 154.945312 131.527344 155.039062 131.527344 155.140625 L 131.527344 158.851562 C 131.527344 158.953125 131.464844 159.046875 131.375 159.09375 L 128.144531 160.949219 C 128.058594 161 127.949219 161 127.863281 160.949219 L 124.628906 159.09375 C 124.542969 159.042969 124.480469 158.953125 124.480469 158.851562 L 124.480469 155.140625 C 124.480469 155.039062 124.542969 154.949219 124.628906 154.898438 L 127.863281 153.042969 C 127.90625 153.015625 127.945312 153.003906 127.992188 153.003906 Z M 127.992188 153.003906 " fill-opacity="1" fill-rule="nonzero"/></g><path fill="#83cd29" d="M 99.78125 144.886719 C 99.578125 144.886719 99.386719 144.9375 99.210938 145.035156 L 89.78125 150.417969 C 89.429688 150.617188 89.214844 151.007812 89.214844 151.410156 L 89.214844 162.207031 C 89.214844 162.640625 89.402344 162.964844 89.78125 163.179688 L 99.210938 168.578125 C 99.589844 168.796875 99.96875 168.796875 100.347656 168.578125 L 109.777344 163.179688 C 110.15625 162.964844 110.34375 162.640625 110.34375 162.207031 L 110.34375 151.410156 C 110.34375 151.007812 110.128906 150.617188 109.777344 150.417969 L 100.347656 145.039062 C 100.171875 144.9375 99.980469 144.886719 99.777344 144.886719 Z M 156.171875 154.519531 C 156.132812 154.519531 156.09375 154.519531 156.058594 154.539062 L 154.242188 155.589844 C 154.171875 155.628906 154.132812 155.691406 154.128906 155.777344 L 154.128906 157.839844 C 154.128906 157.917969 154.175781 157.988281 154.242188 158.027344 L 156.058594 159.058594 C 156.128906 159.101562 156.195312 159.101562 156.265625 159.058594 L 158.078125 158.027344 C 158.148438 157.988281 158.191406 157.917969 158.191406 157.839844 L 158.191406 155.777344 C 158.191406 155.699219 158.148438 155.628906 158.078125 155.589844 L 156.265625 154.539062 C 156.230469 154.519531 156.207031 154.519531 156.171875 154.519531 Z M 156.171875 154.519531 " fill-opacity="1" fill-rule="nonzero"/></svg>