<svg xmlns="http://www.w3.org/2000/svg" xmlns:xlink="http://www.w3.org/1999/xlink" width="305" zoomAndPan="magnify" viewBox="0 0 228.75 228.749994" height="305" preserveAspectRatio="xMidYMid meet" version="1.0"><defs><clipPath id="cccf6f3f20"><path d="M 72 68 L 159.527344 68 L 159.527344 167 L 72 167 Z M 72 68 " clip-rule="nonzero"/></clipPath></defs><g clip-path="url(#cccf6f3f20)"><path fill="#83cd29" d="M 116.195312 68.785156 C 114.878906 68.785156 113.59375 69.058594 112.460938 69.699219 L 76.558594 90.390625 C 74.234375 91.726562 72.824219 94.25 72.824219 96.933594 L 72.824219 138.246094 C 72.824219 140.929688 74.234375 143.449219 76.558594 144.789062 L 85.933594 150.179688 C 90.492188 152.421875 92.171875 152.386719 94.242188 152.386719 C 100.988281 152.386719 104.839844 148.300781 104.839844 141.203125 L 104.839844 100.441406 C 104.839844 99.867188 104.339844 99.453125 103.769531 99.453125 L 99.273438 99.453125 C 98.699219 99.453125 98.207031 99.878906 98.207031 100.441406 L 98.207031 141.21875 C 98.207031 144.367188 94.921875 147.53125 89.59375 144.871094 L 79.847656 139.167969 C 79.503906 138.980469 79.238281 138.636719 79.238281 138.253906 L 79.238281 96.945312 C 79.238281 96.550781 79.5 96.152344 79.847656 95.953125 L 115.675781 75.335938 C 116.011719 75.144531 116.410156 75.144531 116.742188 75.335938 L 152.566406 95.953125 C 152.910156 96.160156 153.175781 96.539062 153.175781 96.945312 L 153.175781 138.253906 C 153.175781 138.648438 152.980469 139.054688 152.644531 139.242188 L 116.742188 159.863281 C 116.425781 160.042969 116 160.042969 115.675781 159.863281 L 106.453125 154.382812 C 106.175781 154.222656 105.800781 154.238281 105.539062 154.382812 C 102.992188 155.824219 102.511719 155.992188 100.125 156.820312 C 99.539062 157.023438 98.644531 157.339844 100.429688 158.339844 L 112.472656 165.425781 C 113.621094 166.085938 114.898438 166.414062 116.210938 166.414062 C 117.539062 166.414062 118.796875 166.097656 119.945312 165.425781 L 155.847656 144.808594 C 158.171875 143.457031 159.582031 140.949219 159.582031 138.265625 L 159.582031 96.953125 C 159.582031 94.269531 158.171875 91.75 155.847656 90.410156 L 119.945312 69.71875 C 118.820312 69.078125 117.53125 68.804688 116.210938 68.804688 Z M 125.800781 98.304688 C 115.578125 98.304688 109.488281 102.648438 109.488281 109.871094 C 109.488281 117.695312 115.53125 119.855469 125.34375 120.824219 C 137.082031 121.972656 138 123.691406 138 125.996094 C 138 129.996094 134.804688 131.703125 127.25 131.703125 C 117.761719 131.703125 115.675781 129.339844 114.976562 124.617188 C 114.894531 124.113281 114.503906 123.707031 113.988281 123.707031 L 109.324219 123.707031 C 109.035156 123.710938 108.785156 123.820312 108.578125 124.023438 C 108.371094 124.230469 108.265625 124.480469 108.257812 124.769531 C 108.257812 130.800781 111.546875 137.933594 127.238281 137.933594 C 138.601562 137.933594 145.152344 133.492188 145.152344 125.683594 C 145.152344 117.964844 139.859375 115.878906 128.839844 114.421875 C 117.714844 112.941406 116.644531 112.234375 116.644531 109.628906 C 116.644531 107.480469 117.546875 104.605469 125.792969 104.605469 C 133.15625 104.605469 135.878906 106.191406 136.996094 111.148438 C 137.09375 111.617188 137.503906 111.996094 137.988281 111.996094 L 142.648438 111.996094 C 142.933594 111.996094 143.210938 111.820312 143.410156 111.617188 C 143.605469 111.398438 143.746094 111.148438 143.71875 110.855469 C 142.996094 102.316406 137.292969 98.300781 125.804688 98.300781 Z M 125.800781 98.304688 " fill-opacity="1" fill-rule="nonzero"/></g></svg>