<svg xmlns="http://www.w3.org/2000/svg" xmlns:xlink="http://www.w3.org/1999/xlink" width="305" zoomAndPan="magnify" viewBox="0 0 228.75 228.749994" height="305" preserveAspectRatio="xMidYMid meet" version="1.0"><defs><clipPath id="b2c3b2c21f"><path d="M 79 140 L 151.96875 140 L 151.96875 162 L 79 162 Z M 79 140 " clip-rule="nonzero"/></clipPath><clipPath id="6417013e25"><path d="M 74.683594 58 L 154.183594 58 L 154.183594 124 L 74.683594 124 Z M 74.683594 58 " clip-rule="nonzero"/></clipPath><clipPath id="077726bfa2"><path d="M 74.683594 55.601562 L 154 55.601562 L 154 126.101562 L 74.683594 126.101562 Z M 74.683594 55.601562 " clip-rule="nonzero"/></clipPath><clipPath id="fb88a05c51"><path d="M 74.683594 55.601562 L 154.183594 55.601562 L 154.183594 126.101562 L 74.683594 126.101562 Z M 74.683594 55.601562 " clip-rule="nonzero"/></clipPath></defs><g clip-path="url(#b2c3b2c21f)"><path fill="#ffffff" d="M 93.808594 161.050781 L 88.324219 152.78125 C 91.09375 152.539062 93.59375 150.535156 93.59375 146.875 C 93.59375 143.148438 90.941406 140.765625 87.226562 140.765625 L 79.066406 140.765625 L 79.066406 161.035156 L 81.59375 161.035156 L 81.59375 152.980469 L 85.644531 152.980469 L 90.820312 161.035156 Z M 86.921875 150.777344 L 81.59375 150.777344 L 81.59375 143.027344 L 86.921875 143.027344 C 89.332031 143.027344 90.976562 144.609375 90.976562 146.886719 C 90.976562 149.167969 89.328125 150.78125 86.921875 150.78125 Z M 103.21875 161.414062 C 105.625 161.414062 107.605469 160.621094 109.066406 159.164062 L 107.96875 157.675781 C 106.8125 158.859375 105.105469 159.527344 103.433594 159.527344 C 100.265625 159.527344 98.316406 157.21875 98.132812 154.453125 L 110.039062 154.453125 L 110.039062 153.875 C 110.039062 149.472656 107.421875 146.003906 102.972656 146.003906 C 98.769531 146.003906 95.726562 149.441406 95.726562 153.695312 C 95.726562 158.285156 98.863281 161.402344 103.21875 161.402344 Z M 107.789062 152.78125 L 98.132812 152.78125 C 98.253906 150.53125 99.808594 147.886719 102.945312 147.886719 C 106.296875 147.886719 107.757812 150.59375 107.789062 152.78125 Z M 125.210938 161.046875 L 125.210938 150.957031 C 125.210938 147.402344 122.625 146.003906 119.515625 146.003906 C 117.109375 146.003906 115.222656 146.792969 113.636719 148.433594 L 114.703125 150.015625 C 116.011719 148.617188 117.445312 147.980469 119.210938 147.980469 C 121.34375 147.980469 122.929688 149.101562 122.929688 151.078125 L 122.929688 153.722656 C 121.738281 152.355469 120.066406 151.714844 118.054688 151.714844 C 115.558594 151.714844 112.90625 153.265625 112.90625 156.546875 C 112.90625 159.738281 115.554688 161.410156 118.054688 161.410156 C 120.035156 161.410156 121.710938 160.714844 122.929688 159.375 L 122.929688 161.046875 Z M 118.878906 159.769531 C 116.746094 159.769531 115.253906 158.433594 115.253906 156.582031 C 115.253906 154.695312 116.746094 153.359375 118.878906 153.359375 C 120.492188 153.359375 122.042969 153.964844 122.929688 155.183594 L 122.929688 157.949219 C 122.046875 159.164062 120.492188 159.773438 118.878906 159.773438 Z M 136.253906 161.414062 C 138.9375 161.414062 140.519531 160.320312 141.648438 158.859375 L 140.125 157.464844 C 139.148438 158.769531 137.902344 159.378906 136.390625 159.378906 C 133.253906 159.378906 131.304688 156.945312 131.304688 153.695312 C 131.304688 150.441406 133.253906 148.042969 136.390625 148.042969 C 137.914062 148.042969 139.164062 148.621094 140.125 149.957031 L 141.648438 148.558594 C 140.519531 147.097656 138.9375 146.007812 136.253906 146.007812 C 131.871094 146.007812 128.914062 149.351562 128.914062 153.695312 C 128.914062 158.070312 131.871094 161.402344 136.253906 161.402344 Z M 148.5625 161.414062 C 149.902344 161.414062 150.726562 161.015625 151.304688 160.472656 L 150.636719 158.769531 C 150.328125 159.101562 149.734375 159.378906 149.082031 159.378906 C 148.078125 159.378906 147.589844 158.585938 147.589844 157.492188 L 147.589844 148.375 L 150.574219 148.375 L 150.574219 146.371094 L 147.589844 146.371094 L 147.589844 142.359375 L 145.304688 142.359375 L 145.304688 146.371094 L 142.867188 146.371094 L 142.867188 148.375 L 145.304688 148.375 L 145.304688 157.980469 C 145.304688 160.167969 146.398438 161.414062 148.5625 161.414062 Z M 148.5625 161.414062 " fill-opacity="1" fill-rule="evenodd"/></g><path fill="#ffffff" d="M 120.578125 90.789062 C 120.578125 91.234375 120.535156 91.671875 120.449219 92.109375 C 120.359375 92.542969 120.230469 92.96875 120.058594 93.378906 C 119.890625 93.789062 119.679688 94.179688 119.429688 94.550781 C 119.183594 94.917969 118.898438 95.261719 118.582031 95.574219 C 118.265625 95.890625 117.921875 96.167969 117.550781 96.417969 C 117.179688 96.664062 116.785156 96.871094 116.375 97.042969 C 115.960938 97.210938 115.535156 97.339844 115.09375 97.425781 C 114.65625 97.515625 114.214844 97.558594 113.765625 97.558594 C 113.320312 97.558594 112.875 97.515625 112.4375 97.425781 C 112 97.339844 111.574219 97.210938 111.160156 97.042969 C 110.746094 96.871094 110.355469 96.664062 109.980469 96.417969 C 109.609375 96.167969 109.265625 95.890625 108.949219 95.574219 C 108.632812 95.261719 108.351562 94.917969 108.101562 94.550781 C 107.855469 94.179688 107.644531 93.789062 107.472656 93.378906 C 107.300781 92.96875 107.171875 92.542969 107.085938 92.109375 C 107 91.671875 106.953125 91.234375 106.953125 90.789062 C 106.953125 90.34375 107 89.902344 107.085938 89.46875 C 107.171875 89.03125 107.300781 88.609375 107.472656 88.199219 C 107.644531 87.789062 107.855469 87.398438 108.101562 87.027344 C 108.351562 86.660156 108.632812 86.316406 108.949219 86.003906 C 109.265625 85.6875 109.609375 85.40625 109.980469 85.160156 C 110.355469 84.914062 110.746094 84.703125 111.160156 84.535156 C 111.574219 84.363281 112 84.238281 112.4375 84.148438 C 112.875 84.0625 113.320312 84.019531 113.765625 84.019531 C 114.214844 84.019531 114.65625 84.0625 115.09375 84.148438 C 115.535156 84.238281 115.960938 84.363281 116.375 84.535156 C 116.785156 84.703125 117.179688 84.914062 117.550781 85.160156 C 117.921875 85.40625 118.265625 85.6875 118.582031 86.003906 C 118.898438 86.316406 119.183594 86.660156 119.429688 87.027344 C 119.679688 87.398438 119.890625 87.789062 120.058594 88.199219 C 120.230469 88.609375 120.359375 89.03125 120.449219 89.46875 C 120.535156 89.902344 120.578125 90.34375 120.578125 90.789062 Z M 120.578125 90.789062 " fill-opacity="1" fill-rule="nonzero"/><g clip-path="url(#6417013e25)"><path stroke-linecap="butt" transform="matrix(0.135787, 0, 0, 0.134924, 77.167896, 58.726533)" fill="none" stroke-linejoin="miter" d="M 269.523892 135.638176 C 336.897538 135.638176 399.467001 145.30799 446.645814 161.549804 C 503.49053 181.121044 538.443126 210.76742 538.443126 237.634448 C 538.443126 265.630586 501.390497 297.12986 440.345716 317.366986 C 394.202535 332.653398 333.474197 340.644023 269.523892 340.644023 C 203.99137 340.644023 141.910956 333.145574 95.221191 317.193276 C 36.19014 297.014054 0.633425 265.080507 0.633425 237.634448 C 0.633425 210.999032 34.003805 181.555317 90.043029 162.013028 C 137.394448 145.510651 201.517359 135.638176 269.523892 135.638176 Z M 269.523892 135.638176 " stroke="#00d8ff" stroke-width="24" stroke-opacity="1" stroke-miterlimit="4"/></g><g clip-path="url(#077726bfa2)"><path stroke-linecap="butt" transform="matrix(0.135787, 0, 0, 0.134924, 77.167896, 58.726533)" fill="none" stroke-linejoin="miter" d="M 180.747174 186.911352 C 214.376462 128.574001 254.018172 79.211627 291.646152 46.438485 C 337.012608 6.977538 380.163962 -8.482584 403.436925 4.95093 C 427.687986 18.905572 436.462094 66.762466 423.487921 129.732063 C 413.706947 177.357344 390.261378 233.957602 358.329377 289.341896 C 325.563116 346.115864 288.078974 396.144123 250.940042 428.598798 C 203.962602 469.681031 158.538611 484.533171 134.747831 470.810141 C 111.676241 457.521385 102.844597 413.891416 113.920111 355.583017 C 123.269571 306.307498 146.772675 245.856685 180.718406 186.940303 Z M 180.747174 186.911352 " stroke="#00d8ff" stroke-width="24" stroke-opacity="1" stroke-miterlimit="4"/></g><g clip-path="url(#fb88a05c51)"><path stroke-linecap="butt" transform="matrix(0.135787, 0, 0, 0.134924, 77.167896, 58.726533)" fill="none" stroke-linejoin="miter" d="M 180.833477 289.486654 C 147.089118 231.207206 124.103831 172.20397 114.52423 123.217966 C 102.959667 64.243682 111.129657 19.108233 134.373853 5.645767 C 158.596146 -8.366778 204.422883 7.903987 252.522258 50.607507 C 288.855698 82.888473 326.196002 131.440203 358.243074 186.766594 C 391.06687 243.51161 415.691909 300.980415 425.27151 349.358436 C 437.382656 410.561989 427.572915 457.318724 403.810903 471.099657 C 380.768081 484.446316 338.566057 470.317965 293.573579 431.580806 C 255.571621 398.865567 214.894278 348.345132 180.804709 289.457702 Z M 180.833477 289.486654 " stroke="#00d8ff" stroke-width="24" stroke-opacity="1" stroke-miterlimit="4"/></g></svg>