<svg xmlns="http://www.w3.org/2000/svg" xmlns:xlink="http://www.w3.org/1999/xlink" width="305" zoomAndPan="magnify" viewBox="0 0 228.75 228.749994" height="305" preserveAspectRatio="xMidYMid meet" version="1.0"><defs><clipPath id="e1e496aad8"><path d="M 50.769531 62 L 178.269531 62 L 178.269531 166 L 50.769531 166 Z M 50.769531 62 " clip-rule="nonzero"/></clipPath><clipPath id="1fa96e8616"><path d="M 50.769531 57.621094 L 178 57.621094 L 178 170.871094 L 50.769531 170.871094 Z M 50.769531 57.621094 " clip-rule="nonzero"/></clipPath></defs><path fill="#ffffff" d="M 124.277344 114.148438 C 124.277344 114.859375 124.207031 115.566406 124.066406 116.269531 C 123.925781 116.96875 123.71875 117.648438 123.445312 118.308594 C 123.171875 118.96875 122.835938 119.59375 122.4375 120.1875 C 122.039062 120.78125 121.589844 121.332031 121.082031 121.835938 C 120.574219 122.339844 120.023438 122.789062 119.429688 123.1875 C 118.832031 123.585938 118.203125 123.917969 117.542969 124.191406 C 116.882812 124.464844 116.199219 124.671875 115.496094 124.8125 C 114.792969 124.949219 114.085938 125.019531 113.367188 125.019531 C 112.652344 125.019531 111.941406 124.949219 111.238281 124.8125 C 110.539062 124.671875 109.855469 124.464844 109.195312 124.191406 C 108.53125 123.917969 107.902344 123.585938 107.308594 123.1875 C 106.710938 122.789062 106.160156 122.339844 105.65625 121.835938 C 105.148438 121.332031 104.695312 120.78125 104.296875 120.1875 C 103.898438 119.59375 103.5625 118.96875 103.289062 118.308594 C 103.015625 117.648438 102.808594 116.96875 102.667969 116.269531 C 102.53125 115.566406 102.460938 114.859375 102.460938 114.148438 C 102.460938 113.433594 102.53125 112.726562 102.667969 112.027344 C 102.808594 111.324219 103.015625 110.644531 103.289062 109.984375 C 103.5625 109.324219 103.898438 108.699219 104.296875 108.105469 C 104.695312 107.511719 105.148438 106.964844 105.65625 106.457031 C 106.160156 105.953125 106.710938 105.503906 107.308594 105.105469 C 107.902344 104.710938 108.53125 104.375 109.195312 104.101562 C 109.855469 103.828125 110.539062 103.621094 111.238281 103.484375 C 111.941406 103.34375 112.652344 103.273438 113.367188 103.273438 C 114.085938 103.273438 114.792969 103.34375 115.496094 103.484375 C 116.199219 103.621094 116.882812 103.828125 117.542969 104.101562 C 118.203125 104.375 118.832031 104.710938 119.429688 105.105469 C 120.023438 105.503906 120.574219 105.953125 121.082031 106.457031 C 121.589844 106.964844 122.039062 107.511719 122.4375 108.105469 C 122.835938 108.699219 123.171875 109.324219 123.445312 109.984375 C 123.71875 110.644531 123.925781 111.324219 124.066406 112.027344 C 124.207031 112.726562 124.277344 113.433594 124.277344 114.148438 Z M 124.277344 114.148438 " fill-opacity="1" fill-rule="nonzero"/><g clip-path="url(#e1e496aad8)"><path stroke-linecap="butt" transform="matrix(0.217445, 0, 0, 0.216739, 54.760282, 62.642946)" fill="none" stroke-linejoin="miter" d="M 269.525135 135.628963 C 336.891294 135.628963 399.460982 145.289189 446.635258 161.545764 C 503.492296 181.100513 538.432878 210.766058 538.432878 237.638068 C 538.432878 265.627493 501.390472 297.131365 440.34775 317.352958 C 394.19744 332.654323 333.478075 340.638428 269.525135 340.638428 C 203.973371 340.638428 141.906683 333.140939 95.235408 317.190752 C 36.186724 297.005205 0.617392 265.086808 0.617392 237.638068 C 0.617392 210.982332 33.995078 181.551083 90.043723 162.014357 C 137.397642 145.505463 201.512261 135.628963 269.525135 135.628963 Z M 269.525135 135.628963 " stroke="#00d8ff" stroke-width="24" stroke-opacity="1" stroke-miterlimit="4"/></g><g clip-path="url(#1fa96e8616)"><path stroke-linecap="butt" transform="matrix(0.217445, 0, 0, 0.216739, 54.760282, 62.642946)" fill="none" stroke-linejoin="miter" d="M 180.745519 186.921881 C 214.39267 128.564021 254.021936 79.199544 291.657164 46.434075 C 337.017044 6.982144 380.167315 -8.481427 403.431095 4.945566 C 427.682912 18.913244 436.467459 66.745782 423.497228 129.735504 C 413.688715 177.351768 390.263256 233.943392 358.322715 289.345511 C 325.573779 346.117363 288.064302 396.148684 250.932075 428.607765 C 203.955407 469.681749 158.541633 484.532545 134.756888 470.817186 C 111.672751 457.516352 102.852275 413.901152 113.91829 355.597361 C 123.277695 306.322998 146.757047 245.85647 180.727555 186.921881 Z M 180.745519 186.921881 " stroke="#00d8ff" stroke-width="24" stroke-opacity="1" stroke-miterlimit="4"/><path stroke-linecap="butt" transform="matrix(0.217445, 0, 0, 0.216739, 54.760282, 62.642946)" fill="none" stroke-linejoin="miter" d="M 180.817377 289.47167 C 147.080404 231.203925 124.104053 172.197245 114.511112 123.229269 C 102.960061 64.222589 111.133822 19.111495 134.379638 5.666479 C 158.595526 -8.355268 204.422479 7.901307 252.512934 50.597344 C 288.872696 82.876197 326.20253 131.429648 358.232893 186.777698 C 391.07165 243.495482 415.700718 300.988246 425.275695 349.343446 C 437.383639 410.566932 427.575126 457.336124 403.808345 471.087528 C 380.760137 484.442431 338.561975 470.312547 293.579345 431.581528 C 255.566867 398.888151 214.895671 348.334168 180.817377 289.47167 Z M 180.817377 289.47167 " stroke="#00d8ff" stroke-width="24" stroke-opacity="1" stroke-miterlimit="4"/></g></svg>