<svg xmlns="http://www.w3.org/2000/svg" xmlns:xlink="http://www.w3.org/1999/xlink" width="305" zoomAndPan="magnify" viewBox="0 0 228.75 228.749994" height="305" preserveAspectRatio="xMidYMid meet" version="1.0"><defs><clipPath id="0a1c4f779e"><path d="M 57.621094 57.621094 L 170.871094 57.621094 L 170.871094 170.871094 L 57.621094 170.871094 Z M 57.621094 57.621094 " clip-rule="nonzero"/></clipPath></defs><g clip-path="url(#0a1c4f779e)"><path fill="#2965f1" d="M 57.621094 70.207031 L 57.621094 158.289062 C 57.621094 165.242188 63.253906 170.871094 70.207031 170.871094 L 158.289062 170.871094 C 165.242188 170.871094 170.871094 165.242188 170.871094 158.289062 L 170.871094 70.207031 C 170.871094 63.253906 165.242188 57.621094 158.289062 57.621094 L 70.207031 57.621094 C 63.253906 57.621094 57.621094 63.253906 57.621094 70.207031 Z M 124.730469 117.085938 L 111.402344 117.085938 L 111.402344 158.289062 L 100.664062 158.289062 L 100.664062 117.085938 L 87.613281 117.085938 L 87.613281 107.957031 L 124.730469 107.957031 Z M 126.816406 155.933594 L 126.816406 144.917969 C 126.816406 144.917969 132.832031 149.453125 140.054688 149.453125 C 147.277344 149.453125 146.996094 144.734375 146.996094 144.089844 C 146.996094 137.238281 126.539062 137.238281 126.539062 122.0625 C 126.539062 101.417969 156.34375 109.566406 156.34375 109.566406 L 155.972656 119.375 C 155.972656 119.375 150.976562 116.039062 145.328125 116.039062 C 139.683594 116.039062 137.644531 118.726562 137.644531 121.59375 C 137.644531 129 158.289062 128.257812 158.289062 143.164062 C 158.289062 166.117188 126.816406 155.933594 126.816406 155.933594 Z M 126.816406 155.933594 " fill-opacity="1" fill-rule="nonzero"/></g></svg>